<?xml version="1.0" encoding="utf-8"?>
<!-- Generator: Adobe Illustrator 24.1.0, SVG Export Plug-In . SVG Version: 6.00 Build 0)  -->
<svg version="1.1" id="Capa_1" xmlns="http://www.w3.org/2000/svg" xmlns:xlink="http://www.w3.org/1999/xlink" x="0px" y="0px"
	 viewBox="0 0 488.8 736.3" style="enable-background:new 0 0 488.8 736.3;" xml:space="preserve">
<style type="text/css">
	.st0{clip-path:url(#SVGID_2_);}
</style>
<g>
	<defs>
		<polygon id="SVGID_1_" points="176.8,40.6 174.1,42.7 173.1,53.5 176.8,73.7 181.1,87.5 189.7,108.1 189.7,114.7 190.7,121.6 
			189.3,124.5 188.3,126.5 167,135.5 158.6,140.6 151,145.9 144.1,151.5 139,158.2 137.7,160.9 137.7,166.6 133.6,170.9 126.3,174 
			119.7,176.2 101.7,178.7 81.3,181.3 65.7,186 59,186 53,186.9 36.1,192.4 30.1,194 24.4,199.7 21.6,205.7 19.7,210.4 23,217.3 
			26.1,224.5 29.1,226.3 30.5,232.9 32.8,237.6 36.9,242.1 41.8,246.2 43.6,252.9 48.6,260.3 54.5,267 63.7,275.2 74.3,283 
			73.1,285.5 72.5,292.8 75.3,297.9 81.9,306.9 84.6,312.4 89.1,312.4 91.7,314.9 96.2,317 103.8,318.4 108.3,319.6 117.5,319.6 
			126.9,319.6 131,320.8 137.7,321.9 152.7,321.9 154.9,321.9 162.1,321 176.8,319.6 190.7,319.6 202.2,321.9 211,325.3 
			217.1,329.2 221.4,333.9 222.6,340.5 223.6,350.1 226.3,363.2 228.3,373 230.8,380.4 234.5,392.6 234.5,400.2 234.5,408.6 
			232,413.3 230.2,434.8 228.8,441.7 223.8,448.9 215.5,467.1 213,472.2 203,492.4 200.3,497.2 196.4,507.6 192.1,521.5 
			188.1,536.6 186.2,546.2 184.8,550.1 182.5,553.6 179.7,562.8 177.8,572.8 176.6,584.3 174.5,599.8 173.7,604.7 171.3,609.7 
			169.4,614.4 165.5,625.8 161,639.5 157.2,656.5 155.7,663.4 154.3,672.9 153.3,683.5 152.9,693.9 152.5,696.6 147.6,704.4 
			142.8,716 138.5,725.6 133.6,737.1 132.4,740.1 462.5,739.3 460.7,730.3 458.5,723.8 455.2,717.9 453.8,713 454.6,701.3 
			457.6,688.6 462.5,672.9 466.8,662.6 468.1,652 468.1,630.5 467,616.2 466.6,606.4 468.1,586.3 469.1,577.3 467.5,566.3 
			462.6,548.1 452.7,524.2 446.8,511.5 442.7,496.9 437.8,480.8 431.5,465.5 423.3,447.9 417.1,435.8 412.6,429 409.2,418.2 
			405.9,406.5 400.4,396.5 397.1,393.2 396.5,390.3 392.8,384.2 379.1,329.2 371.9,289.9 365,257 360.9,237 356.2,221.6 
			351.9,212.4 345.6,200.4 345.8,197.9 350.5,189.9 353.7,181.9 354.6,178.3 363.5,163.5 365.2,159 366.6,142.9 370.7,123.9 
			370.9,111.2 379.7,76 389.7,43.5 391.6,37.7 396.3,30.6 397.3,26.5 396.3,24.5 393.4,25.5 389.5,26.9 385.2,30.4 379.1,37.1 
			370.7,47.4 364.8,54.5 360.7,58.8 353.7,62.7 344.5,71.1 337,78.9 332.3,85 329.4,88.7 328,90.9 325.7,93 312.4,102.2 
			305.3,106.5 299.7,110.8 299.3,114.7 298.5,117.3 295.2,120.2 289.3,119.2 279.1,116.3 272.1,115.3 244.4,114.7 241,114.4 
			228.1,101 214.6,85 205,73.3 195,60.4 185.4,49 180.3,42.7 178.8,41.2 		"/>
	</defs>
	<clipPath id="SVGID_2_">
		<use xlink:href="#SVGID_1_"  style="overflow:visible;"/>
	</clipPath>
	<g class="st0">
		
			<image style="overflow:visible;enable-background:new    ;" width="1920" height="1080" xlink:href="802A8B7F.png"  transform="matrix(0.75 0 0 0.75 -811.7895 -69.9018)">
		</image>
	</g>
</g>
</svg>
